<svg xmlns="http://www.w3.org/2000/svg" width="25.002" height="25.001" viewBox="0 0 25.002 25.001"><path d="M12.5 0C9.1 0 8.679.014 7.346.075a9.174 9.174 0 0 0-3.034.581A6.392 6.392 0 0 0 .656 4.312a9.174 9.174 0 0 0-.581 3.034C.014 8.679 0 9.105 0 12.5s.014 3.821.075 5.154a9.174 9.174 0 0 0 .581 3.034 6.392 6.392 0 0 0 3.656 3.656 9.175 9.175 0 0 0 3.034.581c1.333.061 1.759.075 5.154.075s3.821-.014 5.154-.075a9.175 9.175 0 0 0 3.034-.581 6.392 6.392 0 0 0 3.656-3.656 9.178 9.178 0 0 0 .581-3.034c.061-1.333.075-1.759.075-5.154s-.014-3.821-.075-5.154a9.177 9.177 0 0 0-.581-3.034A6.392 6.392 0 0 0 20.688.656a9.174 9.174 0 0 0-3.034-.581C16.322.014 15.9 0 12.5 0zm0 2.252c3.338 0 3.733.013 5.051.073a6.916 6.916 0 0 1 2.321.43 4.139 4.139 0 0 1 2.372 2.372 6.915 6.915 0 0 1 .43 2.321c.06 1.318.073 1.714.073 5.051s-.013 3.733-.073 5.051a6.915 6.915 0 0 1-.43 2.321 4.139 4.139 0 0 1-2.372 2.372 6.916 6.916 0 0 1-2.321.43c-1.318.06-1.713.073-5.051.073s-3.734-.013-5.052-.073a6.916 6.916 0 0 1-2.321-.43 4.14 4.14 0 0 1-2.373-2.372 6.916 6.916 0 0 1-.43-2.321c-.06-1.318-.073-1.714-.073-5.051s.013-3.733.073-5.051a6.916 6.916 0 0 1 .43-2.321 4.14 4.14 0 0 1 2.373-2.372 6.916 6.916 0 0 1 2.321-.43c1.32-.06 1.715-.073 5.052-.073zm0 3.829a6.419 6.419 0 1 0 6.419 6.419A6.419 6.419 0 0 0 12.5 6.081zm0 10.586a4.167 4.167 0 1 1 4.167-4.167 4.167 4.167 0 0 1-4.167 4.167zm8.173-10.84a1.5 1.5 0 1 1-1.5-1.5 1.5 1.5 0 0 1 1.501 1.501z" fill="#fff" fill-rule="evenodd"/></svg>