<svg xmlns="http://www.w3.org/2000/svg" width="24.999" height="24.999" viewBox="0 0 24.999 24.999"><path d="M19.791 0H5.208A5.209 5.209 0 0 0 0 5.208v14.583A5.209 5.209 0 0 0 5.208 25h14.583A5.208 5.208 0 0 0 25 19.791V5.208A5.208 5.208 0 0 0 19.791 0zM8.333 19.791H5.208V8.333h3.125zM6.771 7.012a1.837 1.837 0 1 1 1.822-1.837 1.831 1.831 0 0 1-1.822 1.837zm14.062 12.779h-3.125v-5.837c0-3.508-4.167-3.243-4.167 0v5.837h-3.125V8.333h3.125v1.838c1.459-2.693 7.292-2.892 7.292 2.58z" fill="#fff"/></svg>