<svg xmlns="http://www.w3.org/2000/svg" width="25" height="21" viewBox="0 0 25 21"><path d="M25 2.486a9.957 9.957 0 0 1-2.945.834A5.284 5.284 0 0 0 24.31.388a10.054 10.054 0 0 1-3.259 1.285A5.041 5.041 0 0 0 17.308 0a5.217 5.217 0 0 0-5.127 5.3 5.451 5.451 0 0 0 .132 1.207A14.406 14.406 0 0 1 1.74.966a5.432 5.432 0 0 0-.694 2.668 5.349 5.349 0 0 0 2.282 4.412 5.006 5.006 0 0 1-2.324-.661v.065a5.261 5.261 0 0 0 4.116 5.2 4.856 4.856 0 0 1-1.351.187 4.944 4.944 0 0 1-.966-.094 5.155 5.155 0 0 0 4.791 3.68 10.078 10.078 0 0 1-6.37 2.271A10.185 10.185 0 0 1 0 18.62 14.2 14.2 0 0 0 7.862 21c9.435 0 14.593-8.077 14.593-15.083 0-.231 0-.461-.013-.687A10.576 10.576 0 0 0 25 2.486" fill="#56596a" fill-rule="evenodd"/></svg>