<svg xmlns="http://www.w3.org/2000/svg" xmlns:xlink="http://www.w3.org/1999/xlink" width="133" height="26.006"><defs><linearGradient id="linear-gradient" x1=".282" x2=".651" y1="1.253" y2=".294" gradientUnits="objectBoundingBox"><stop offset="0" stop-color="#fff"/><stop offset="1" stop-color="#fff"/></linearGradient><linearGradient xlink:href="#linear-gradient" id="linear-gradient-4" x1=".504" x2=".5" y1="2.223" y2=".375"/><style>.cls-1{fill:url(#linear-gradient)}.cls-2{fill:url(#linear-gradient-4)}.cls-3{fill:#fff}</style></defs><g id="setare1_logo" data-name="setare1 logo" transform="translate(107.104 -381.15)"><g id="Group_5224" data-name="Group 5224" transform="translate(-1.966 381.15)"><g id="Group_5219" data-name="Group 5219"><path id="Path_1237" d="M826.463 319.15h.221a1.613 1.613 0 0 1 .525.139 3.271 3.271 0 0 1 1.178 1.039 11.7 11.7 0 0 1 1.283 2.3c.429.979.783 1.989 1.136 3 .06.185.137.364.185.553-.544.077-1.085.184-1.626.28a2.567 2.567 0 0 1-.121-.288 6.564 6.564 0 0 0-.82-1.493 2.3 2.3 0 0 0-.957-.781 1.285 1.285 0 0 0-.88-.013 2.377 2.377 0 0 0-.865.556 7.355 7.355 0 0 0-1.225 1.653c-.38.653-.687 1.346-1.015 2.026l-3.186 6.666c-.115.228-.213.465-.337.688a1.382 1.382 0 0 1-.124-.056 18.869 18.869 0 0 1-1.665-.89 1.189 1.189 0 0 1 .089-.245 459.6 459.6 0 0 1 1.77-4.227 242.21 242.21 0 0 1 2.2-5.049 59.65 59.65 0 0 1 1.209-2.557 14.092 14.092 0 0 1 .778-1.4 5.846 5.846 0 0 1 1.213-1.436 2.015 2.015 0 0 1 1.034-.465z" class="cls-1" data-name="Path 1237" transform="translate(-811.745 -319.15)"/><path id="Path_1238" d="M1063.861 593.674a9.388 9.388 0 0 1 1-.016c.688 1.81 1.337 3.636 1.934 5.479a51.285 51.285 0 0 1 1.51 5.562 11.945 11.945 0 0 1 .262 2.531 2.983 2.983 0 0 1-.1.682 1.411 1.411 0 0 1-.8.9 2.551 2.551 0 0 1-1.231.156 6.992 6.992 0 0 1-1.5-.316 18.688 18.688 0 0 1-2.506-1.03c-.764-.368-1.5-.788-2.26-1.166-.3-.155-.6-.3-.9-.457a.847.847 0 0 1 .154-.119q.6-.427 1.185-.868c.175-.129.342-.269.521-.391.145.062.277.152.417.225a11.189 11.189 0 0 0 1.316.643 3.3 3.3 0 0 0 1.244.272 1.634 1.634 0 0 0 1.17-.483 1.958 1.958 0 0 0 .4-1.08 7.624 7.624 0 0 0-.054-1.684 23.2 23.2 0 0 0-.616-3c-.514-1.94-1.162-3.84-1.852-5.721 0-.013-.007-.04-.01-.053.235-.04.476-.046.716-.066z" class="cls-1" data-name="Path 1238" transform="translate(-1044.615 -584.075)"/><path id="Path_1239" d="M636.358 596.092c.7-.142 1.411-.271 2.116-.4a2.341 2.341 0 0 1-.1.26l-.6 1.418a.26.26 0 0 1-.05.084 7.5 7.5 0 0 0-1.98 1 2.522 2.522 0 0 0-.808.912 1.191 1.191 0 0 0-.035.923 2.356 2.356 0 0 0 .654.884 7.551 7.551 0 0 0 1.6 1.044c.293.154.6.279.888.44 1.78.933 3.628 1.721 5.461 2.534.132.062.27.109.4.174a3.41 3.41 0 0 1-.357.234c-.443.273-.888.543-1.337.8-.125.067-.241.152-.371.207-.139-.047-.269-.115-.4-.175q-4.226-1.975-8.384-4.1a8.954 8.954 0 0 1-1.877-1.146 4.1 4.1 0 0 1-.81-.863 1.718 1.718 0 0 1-.319-1.025 1.426 1.426 0 0 1 .365-.836 3.479 3.479 0 0 1 .863-.7 10.394 10.394 0 0 1 2.04-.885 29.576 29.576 0 0 1 3.041-.784z" class="cls-1" data-name="Path 1239" transform="translate(-630.036 -586.044)"/></g><g id="Group_5220" data-name="Group 5220" transform="translate(3.05 6.945)"><path id="Path_1240" d="M970.47 518.78a32.633 32.633 0 0 1 4.841-.5 11.871 11.871 0 0 1 1.452.064 5.98 5.98 0 0 1 1.268.251 2.7 2.7 0 0 1 .973.533 1.419 1.419 0 0 1 .424.685 2.119 2.119 0 0 1-.149 1.289 7.34 7.34 0 0 1-1.149 1.821 21.526 21.526 0 0 1-1.81 1.923q-.889.843-1.82 1.638a1.648 1.648 0 0 1-.256.186c-.171-.517-.343-1.034-.506-1.553.059-.078.146-.128.209-.2a5.773 5.773 0 0 0 .648-.937 2.7 2.7 0 0 0 .367-1.325 1.724 1.724 0 0 0-.306-.953 2.385 2.385 0 0 0-.949-.792 3.393 3.393 0 0 0-1.276-.321 14.837 14.837 0 0 0-2.445.063 62.265 62.265 0 0 0-7.006 1.239c.251-.552.522-1.094.779-1.644.016-.057.076-.066.126-.075 1.2-.249 2.4-.556 3.6-.807q1.486-.329 2.985-.585z" class="cls-2" data-name="Path 1240" transform="translate(-954.663 -518.279)"/><path id="Path_1241" d="M735.969 765.663c.138-.1.265-.207.4-.3a.177.177 0 0 1 .035.08c.082.323.156.647.234.97a1.415 1.415 0 0 1 .049.253c-.341.286-.669.587-1.005.879q-1.947 1.695-4.021 3.229a45.781 45.781 0 0 1-4.523 2.97 23.947 23.947 0 0 1-3.5 1.658 7.276 7.276 0 0 1-1.5.358 3.276 3.276 0 0 1-.514.043 2.593 2.593 0 0 1-1.442-.326 1.645 1.645 0 0 1-.628-.75 2.455 2.455 0 0 1-.184-1c0-.152 0-.3.007-.455.039-.313.082-.627.152-.935.123-.5.286-.98.446-1.464.225-.651.477-1.294.758-1.922a15.542 15.542 0 0 1 .7-1.394.237.237 0 0 1 .081.024c.55.277 1.105.546 1.657.82a.933.933 0 0 1 .209.113c-.055.128-.126.25-.172.382a9.3 9.3 0 0 0-.322 1.067 4.082 4.082 0 0 0-.128 1.021 1.7 1.7 0 0 0 .2.921 1.008 1.008 0 0 0 .5.41 1.91 1.91 0 0 0 .946.068 6.07 6.07 0 0 0 1.355-.4 27.116 27.116 0 0 0 2.454-1.266c1.505-.863 2.97-1.8 4.416-2.757q1.684-1.122 3.34-2.297z" class="cls-2" data-name="Path 1241" transform="translate(-719.368 -756.743)"/></g></g><g id="Group_5223" data-name="Group 5223" transform="translate(-107.104 381.15)"><path id="Path_1245" d="M1411.585 1242.026a2.061 2.061 0 0 1 2.045 1.113 2.048 2.048 0 1 1-3.332-.467 2.056 2.056 0 0 1 1.287-.646z" class="cls-3" data-name="Path 1245" transform="translate(-1338.177 -1236.002)"/><path id="Path_1246" d="M1473.268 1242.039a2.047 2.047 0 1 1-1.769 2.526 2.049 2.049 0 0 1 1.769-2.526z" class="cls-3" data-name="Path 1246" transform="translate(-1395.622 -1236.015)"/><path id="Path_1242" d="M923.641 1154.926c.239-.091.47-.2.716-.275.01 4.8 0 9.6 0 14.4v4.945c-.32.159-.661.269-.988.41-.642.258-1.282.521-1.925.777a4.638 4.638 0 0 1-.6.226c-.021-1.024 0-2.049-.009-3.074v-15.116c.011-.387-.024-.775.017-1.161.924-.387 1.861-.75 2.789-1.132z" class="cls-3" data-name="Path 1242" transform="translate(-882.9 -1154.65)"/><path id="Path_1243" d="M1347.981 1155.1c.37-.138.724-.315 1.1-.432.018 2.164 0 4.329.007 6.494v12.521c1.4-.668 2.786-1.351 4.182-2.021.552-.281 1.121-.524 1.666-.818.022-1.048 0-2.1.009-3.146.009-.339-.018-.679.013-1.018.677-.333 1.36-.653 2.041-.981a5.349 5.349 0 0 1 .563-.255c.023 1.652 0 3.306.011 4.959a3.951 3.951 0 0 1-.437 1.88 4.891 4.891 0 0 1-1.243 1.5c.217-.092.427-.2.64-.3l11.84-5.693c1.9-.9 3.781-1.826 5.679-2.723v1.251c-.02.128-.044.257-.062.386a3.948 3.948 0 0 1-1.5 2.539 7.44 7.44 0 0 1-1.339.733q-7.442 3.579-14.883 7.16a4.187 4.187 0 0 1-.607.271c-.026-1.145 0-2.292-.011-3.438a6.987 6.987 0 0 1-.972.54l-5.68 2.749a2.431 2.431 0 0 1-3.434-2.21v-17.58c.01-.462-.022-.925.015-1.386.794-.335 1.6-.652 2.402-.982z" class="cls-3" data-name="Path 1243" transform="translate(-1278.389 -1154.668)"/><path id="Path_1244" d="M390.2 1155.66c.226-.086.444-.19.676-.261.011 5.467 0 10.935.006 16.4 0 .406.018.813 0 1.22a2.291 2.291 0 0 1-1.255 1.9c-1.736.855-3.486 1.682-5.231 2.517q-3.569 1.7-7.138 3.409a5.641 5.641 0 0 1-2.283.509 5.357 5.357 0 0 1-4.172-1.911 5.143 5.143 0 0 1-1.1-2.422 5.483 5.483 0 0 1 1.187-4.342 5.648 5.648 0 0 1 1.859-1.473q5.46-2.6 10.915-5.21c.016.958 0 1.917.007 2.876a4.549 4.549 0 0 1-.019.657q-4.886 2.322-9.764 4.661a2.675 2.675 0 0 0-1.473 1.686 1.955 1.955 0 0 0 .606 2.024 2.433 2.433 0 0 0 2.459.27c.7-.316 1.378-.67 2.073-.991l9.793-4.675c.015-2.291 0-4.583.006-6.874v-7.616c.007-.4-.014-.807.01-1.21.947-.389 1.896-.762 2.838-1.144z" class="cls-3" data-name="Path 1244" transform="translate(-369.636 -1155.347)"/><g id="Group_5221" data-name="Group 5221" transform="translate(43.563 7.613)"><path id="Path_1247" d="M1008.47 1264.9a38.36 38.36 0 0 1 4.44 2.932 14.934 14.934 0 0 1 2.862 2.813 4.191 4.191 0 0 1 .883 2.033c.017.509 0 1.019.008 1.529a1.321 1.321 0 0 1-.161.691 2.758 2.758 0 0 1-1.276 1.068l-7.7 3.518a6.487 6.487 0 0 1-2.538.576 2.3 2.3 0 0 1-1.581-.539 2.476 2.476 0 0 1-.724-1.624 6.22 6.22 0 0 1 .441-2.668 14.505 14.505 0 0 1 2.555-4.063 27.236 27.236 0 0 1 2.764-2.778c.039-.352 0-.709.016-1.063.01-.81 0-1.618.011-2.425zm2.463 5.562a32.152 32.152 0 0 0-3.854 2.947 7.867 7.867 0 0 0-1.417 1.644 1.535 1.535 0 0 0-.256.908.575.575 0 0 0 .327.472 1.593 1.593 0 0 0 .747.109 3.035 3.035 0 0 0 1.264-.349q3.129-1.492 6.257-2.986a9.123 9.123 0 0 0-1.218-1.423 17.08 17.08 0 0 0-1.661-1.438c-.062.037-.127.073-.188.117z" class="cls-3" data-name="Path 1247" transform="translate(-1002.673 -1264.9)"/></g><g id="Group_5222" data-name="Group 5222" transform="translate(22.307 9.114)"><path id="Path_1248" d="M697.233 1287.493a4.5 4.5 0 0 1 2.092-.7 5.636 5.636 0 0 1 3.108.631 9.219 9.219 0 0 1 2.955 2.583 10.953 10.953 0 0 1 1.417 2.317 5.809 5.809 0 0 1 .512 2.159 4.022 4.022 0 0 1-.715 2.358 5.133 5.133 0 0 1-1.827 1.594q-4.925 2.353-9.854 4.7c-.378.17-.744.37-1.129.525q-.005-1.749 0-3.5c1.606-.787 3.229-1.542 4.841-2.318l4.639-2.212c.389-.194.79-.363 1.172-.568a5.314 5.314 0 0 0-.385-1.325c-.758.339-1.5.715-2.254 1.065a14.928 14.928 0 0 1-2.985 1.198 4.557 4.557 0 0 1-2.351.032 2.177 2.177 0 0 1-1.488-1.516 9.616 9.616 0 0 1-.066-3.175 6.347 6.347 0 0 1 .744-2.178 4.9 4.9 0 0 1 1.574-1.67zm.861 3.2a2.044 2.044 0 0 0-.695 1.282 3.79 3.79 0 0 0 .054 1.379c.33-.13.64-.307.964-.451l2.956-1.409c.282-.143.582-.253.848-.423a2.657 2.657 0 0 0-2.175-.983 3.151 3.151 0 0 0-1.952.605z" class="cls-3" data-name="Path 1248" transform="translate(-693.79 -1286.772)"/></g><path id="Path_1249" d="M1131.654 1327.717a2.8 2.8 0 0 1 .392-.167c.023 1.653 0 3.307.01 4.961a3.906 3.906 0 0 1-.625 2.179 5.007 5.007 0 0 1-1.89 1.713q-5.334 2.553-10.675 5.094a2.311 2.311 0 0 1-.333.142c0-1.162-.007-2.325.005-3.488a1.408 1.408 0 0 1 .323-.172q5.273-2.521 10.551-5.035c.03-1.386-.008-2.775.018-4.161.737-.363 1.486-.706 2.224-1.066z" class="cls-3" data-name="Path 1249" transform="translate(-1066.996 -1315.638)"/></g></g></svg>