<svg xmlns="http://www.w3.org/2000/svg" width="76" height="53"><path d="M-13.444-4a3.924 3.924 0 0 1 .092.861 4.652 4.652 0 0 1-.065.756 4.416 4.416 0 0 1-.618 1.617 3.551 3.551 0 0 1-3.2 1.751 5.256 5.256 0 0 1-1.781-.3 4.161 4.161 0 0 1-1.025-.57 3.942 3.942 0 0 1-2.519.87A5.171 5.171 0 0 1-23.981.8a5.606 5.606 0 0 1-1.2 3.52 4.616 4.616 0 0 1-1.956 1.38 7.867 7.867 0 0 1-2.722.44h-2.094a5.465 5.465 0 0 1-2.722-.689 5.231 5.231 0 0 1-1.974-1.921 6.448 6.448 0 0 1-.729-1.885A8.339 8.339 0 0 1-37.553-.1q0-.23.009-.459A13.667 13.667 0 0 1-36.1-5.673l2.7 1.387a10.7 10.7 0 0 0-1.127 3.913q-.009.172-.009.335a3.619 3.619 0 0 0 .461 1.913 2.174 2.174 0 0 0 1.024.909 2.647 2.647 0 0 0 1.1.22h2.094a3.377 3.377 0 0 0 2.334-.593A2.672 2.672 0 0 0-27 .5v-6.125h3.017V-3.3q0 1.148 1.218 1.148a1.408 1.408 0 0 0 .8-.2 1.054 1.054 0 0 0 .415-.947v-2.326h3.026V-3.3a1.3 1.3 0 0 0 .212.842 1.128 1.128 0 0 0 .913.306q1.052 0 1.052-.756a1.639 1.639 0 0 0-.046-.364q-.526-2.248-.683-3.013l2.934-.727q.273 1.148.698 3.012zm-6.809-5.769-1.827 1.915-1.827-1.894 1.827-1.913zm4-.029L-18.058-7.9l-1.873-1.875 1.845-1.913zm-2.214-2.468-1.602 1.666-1.587-1.645 1.605-1.665zM-6.543-2.143v-.985a2.4 2.4 0 0 0-.36-1.4 1.138 1.138 0 0 0-.978-.507 1.169 1.169 0 0 0-1 .507 2.014 2.014 0 0 0-.337 1.218q0 .086.009.182a.913.913 0 0 0 .434.765 1.658 1.658 0 0 0 .895.22zM-7.881-8.17a3.915 3.915 0 0 1 3.248 1.54 5.455 5.455 0 0 1 1.116 3.5V.382a4.971 4.971 0 0 1-2.647 4.755 8.011 8.011 0 0 1-2.436.8 13.352 13.352 0 0 1-2.4.2V3a7.111 7.111 0 0 0 3.469-.67A1.559 1.559 0 0 0-6.589.985h-1.292a4.324 4.324 0 0 1-2.8-.918 3.845 3.845 0 0 1-1.393-3.2 5.9 5.9 0 0 1 .923-3.358 3.686 3.686 0 0 1 3.27-1.679zM4.031-5.635v2.612a.749.749 0 0 0 .406.66 1.189 1.189 0 0 0 .655.21h.424V.985h-.424A3.917 3.917 0 0 1 3.957.8a6.321 6.321 0 0 1-1.375 3.409 5.849 5.849 0 0 1-4.724 1.9h-.913V2.975h.913a3.137 3.137 0 0 0 2.418-.794A3.9 3.9 0 0 0 1-.478v-5.157zm31.454.172-.018-.22q-.028-.239-.055-.43a3.762 3.762 0 0 0-.212-.851 1.415 1.415 0 0 0-1.246-.995l-.092-.01h-.083a1.241 1.241 0 0 0-.95.373 1.243 1.243 0 0 0-.314.871v.086a1.208 1.208 0 0 0 .9 1.205 8.194 8.194 0 0 0 2.085.172zm-1.541-5.482A3.81 3.81 0 0 1 37.6-8.658a9.813 9.813 0 0 1 .849 4.391A4.677 4.677 0 0 1 36.306-.01a7.144 7.144 0 0 1-3.884.995H5.2v-3.138h27.221a9.011 9.011 0 0 0 2.279-.21 5.882 5.882 0 0 1-3.45-.937 3.77 3.77 0 0 1-1.587-3.291 5.054 5.054 0 0 1 .175-1.3 4.344 4.344 0 0 1 .655-1.425 3.924 3.924 0 0 1 3.451-1.628zm-2.593-3.138 1.919-2.009 1.956 2.028-1.946 2.01zm-58.8 40.535a10.09 10.09 0 0 0-1.07 4.1q0 .172.009.364a3.9 3.9 0 0 0 .065.469 3.511 3.511 0 0 0 .351 1.071 2.487 2.487 0 0 0 2.38 1.32h2.547a5.019 5.019 0 0 0 2.685-.526q.388-.268.4-.526a11.2 11.2 0 0 0-3.618-1.239v-2.87h8.433v3.138h-2.224a1.835 1.835 0 0 1 .2.947q0 .22-.018.44a4.579 4.579 0 0 1-.111.593 3.618 3.618 0 0 1-.7 1.406q-1.449 1.77-5.056 1.77h-2.547a5.284 5.284 0 0 1-4.627-2.229 7.021 7.021 0 0 1-1.209-4.123 11.771 11.771 0 0 1 .692-3.788 12.861 12.861 0 0 1 .692-1.674zm16.257.44a5.549 5.549 0 0 1 .074.88 3.987 3.987 0 0 1-.72 2.334 4.262 4.262 0 0 1-3.762 1.647h-1.975v-3.138h1.91a2.2 2.2 0 0 0 1.172-.23.764.764 0 0 0 .351-.7 1.516 1.516 0 0 0-.037-.316q-.092-.488-.185-.995-.037-.191-.074-.411l-.037-.182-.025-.181q-.138-.784-.212-1.119l2.888-.909q.278 1.35.624 3.321zm-5.222-7.022 1.919-2.009 1.956 2.028-1.95 2.011zm11.751 11.883h-.83a4.349 4.349 0 0 1-1.836-.373 3.443 3.443 0 0 1-1.08-.756 3.583 3.583 0 0 1-.728-1.124 4.8 4.8 0 0 1-.36-1.9v-9.642h3.017V27.6a1.162 1.162 0 0 0 .212.8 1.078 1.078 0 0 0 .775.21h.83zm7.021-2.746a2.254 2.254 0 0 0 .12-.746q0-.105-.009-.21a2.468 2.468 0 0 0-.415-1.272 1.071 1.071 0 0 0-.877-.545 1.3 1.3 0 0 0-1.126.842 3.832 3.832 0 0 0-.286.708q-.046.134-.1.325l-.037.143-.037.124a4.34 4.34 0 0 0 1.366.794 3.4 3.4 0 0 0 1.089.249q.165 0 .313-.412zM1.178 23.1a3.6 3.6 0 0 1 3.266 1.856 5.757 5.757 0 0 1 .656 1.621 6.364 6.364 0 0 1 .185 1.473 4.814 4.814 0 0 1-1.126 3.482 2.925 2.925 0 0 1-1.928.909q-.092.01-.258.01a5.933 5.933 0 0 1-2.454-.593 8.886 8.886 0 0 1-.95-.488l-.2-.115-.185-.105q-.212-.134-.3-.182a3.393 3.393 0 0 1-2.519.784h-.5v-3.137h.378a1.465 1.465 0 0 0 1.227-.4 8.467 8.467 0 0 0 .517-1.435l.055-.163a1.43 1.43 0 0 1 .074-.21 4.747 4.747 0 0 1 .212-.517 5.81 5.81 0 0 1 .738-1.234A3.8 3.8 0 0 1 1.178 23.1zm10.454 7.2a7.007 7.007 0 0 1-1.449 4.688 5.849 5.849 0 0 1-4.724 1.9h-.913v-3.136h.913a3.137 3.137 0 0 0 2.417-.794 3.9 3.9 0 0 0 .729-2.658v-5.158h3.026zm-3.4-9.2 1.919-2.009 1.949 2.024-1.947 2.009zm9.789 10.657h-.83a4.349 4.349 0 0 1-1.836-.373 3.443 3.443 0 0 1-1.08-.756 3.583 3.583 0 0 1-.729-1.119 4.8 4.8 0 0 1-.36-1.9v-9.651H16.2V27.6a1.162 1.162 0 0 0 .212.8 1.078 1.078 0 0 0 .775.21h.83zm7.2-3.339a1.124 1.124 0 0 0 .351-.947v-2.329h3.018v2.325a1.3 1.3 0 0 0 .212.842 1.128 1.128 0 0 0 .913.306q1.052 0 1.052-.756a1.639 1.639 0 0 0-.046-.364q-.526-2.248-.683-3.013l2.934-.727q.268 1.148.692 3.013a3.924 3.924 0 0 1 .092.861 4.652 4.652 0 0 1-.065.756A4.416 4.416 0 0 1 33.074 30a3.55 3.55 0 0 1-3.2 1.751 5.256 5.256 0 0 1-1.781-.3 4.161 4.161 0 0 1-1.024-.574 3.942 3.942 0 0 1-2.519.871 4.048 4.048 0 0 1-2.593-.871 3.356 3.356 0 0 1-2.648.871h-1.772v-3.133h1.772a1.128 1.128 0 0 0 .913-.306 1.3 1.3 0 0 0 .212-.842v-2.325h3.026v2.325a1.2 1.2 0 0 0 .314.947 1.007 1.007 0 0 0 .692.2 1.2 1.2 0 0 0 .747-.2z" data-name="forosh sazmani" transform="translate(37.553 16.091)" style="fill:#1e96a2"/></svg>