<svg xmlns="http://www.w3.org/2000/svg" id="rondtarin" width="81.001" height="29.971"><defs><style>.cls-1{fill:#2c3e50}</style></defs><path id="Path_1263" d="M127.172 0h.476a2.655 2.655 0 0 1 1.181.459 2.432 2.432 0 1 1-2.916.059A2.628 2.628 0 0 1 127.172 0z" class="cls-1" data-name="Path 1263" transform="translate(-116.293)"/><path id="Path_1264" d="M647.177 0h5.332a2.493 2.493 0 0 1 1.951 1.366 2.429 2.429 0 0 1-2.18 3.5h-4.729a2.723 2.723 0 0 1-.971-.147 2.431 2.431 0 0 1-.666-4.2A2.629 2.629 0 0 1 647.177 0z" class="cls-1" data-name="Path 1264" transform="translate(-600.217)"/><path id="Path_1265" d="M908.171 0h.477a2.656 2.656 0 0 1 1.181.459 2.431 2.431 0 1 1-2.916.059A2.638 2.638 0 0 1 908.171 0z" class="cls-1" data-name="Path 1265" transform="translate(-843.097)"/><path id="Path_1266" d="M1108.521 0h.479a2.133 2.133 0 0 1 .892.466 1.735 1.735 0 0 1 .477 1.693 2.153 2.153 0 0 1-.664 1.01c-.451.429-.863.9-1.327 1.312a.849.849 0 0 1-1.34-.6c-.067-.391.231-.684.465-.953a2.639 2.639 0 0 1-.387-.661 1.743 1.743 0 0 1 .342-1.7 1.859 1.859 0 0 1 1.063-.567z" class="cls-1" data-name="Path 1266" transform="translate(-1030.195)"/><path id="Path_1267" d="M.322 101.189a2.429 2.429 0 0 1 4.538 1.131c.01 2.434 0 4.869.006 7.3a6.253 6.253 0 0 0 12.5-.21v-7.021a2.431 2.431 0 0 1 4.862 0v4.1a5.285 5.285 0 0 0 .174 1.766 3.821 3.821 0 0 0 7.466-1.069c.008-1.624 0-3.248.006-4.872a2.43 2.43 0 0 1 4.636-.943 2.752 2.752 0 0 1 .226 1.3v4.446a8.688 8.688 0 0 1-10.289 8.537 9.052 9.052 0 0 1-3.309-1.36 11.133 11.133 0 0 1-11.212 6.239 11.127 11.127 0 0 1-9.537-8.111A13.226 13.226 0 0 1 0 110.063v-7.9a2.805 2.805 0 0 1 .322-.974z" class="cls-1" data-name="Path 1267" transform="translate(0 -93.13)"/><path id="Path_1268" d="M456.91 100.027a2.432 2.432 0 0 1 2.945 2.374v4.8a3.821 3.821 0 0 0 7.641-.07v-4.8a2.431 2.431 0 0 1 4.86.072v3.685a17.817 17.817 0 0 1-.056 2.011 8.685 8.685 0 0 1-10.566 7.5 8.825 8.825 0 0 1-3.546-1.724 16.73 16.73 0 0 1-4.326 5.472 4.608 4.608 0 0 1-1.961 1.151 2.431 2.431 0 0 1-2.46-3.766 3.111 3.111 0 0 1 .955-.855 11.592 11.592 0 0 0 4.584-8.883c.016-1.554 0-3.108.009-4.661a2.441 2.441 0 0 1 1.921-2.306z" class="cls-1" data-name="Path 1268" transform="translate(-417.864 -93.138)"/><path id="Path_1269" d="M770.34 102.321a2.432 2.432 0 0 1 4.862.143v4.17a5.012 5.012 0 0 0 .13 1.468 3.821 3.821 0 0 0 7.51-.841c.01-1.622 0-3.245 0-4.869a2.431 2.431 0 0 1 4.862 0v3.824a16.719 16.719 0 0 1-.048 1.8 8.692 8.692 0 0 1-14.12 5.848 17.488 17.488 0 0 1-1.886 2.984 3.03 3.03 0 0 1-1.058 1.1 2.715 2.715 0 0 1-1.866.231 2.323 2.323 0 0 1-1.452-1.049 2.691 2.691 0 0 1-.256-2.062 2.875 2.875 0 0 1 .826-1.265 11.523 11.523 0 0 0 2.483-6.817q.011-2.335.013-4.665z" class="cls-1" data-name="Path 1269" transform="translate(-713.724 -93.082)"/><path id="Path_1270" d="M1021.88 100.347a2.433 2.433 0 0 1 2.624.137 2.52 2.52 0 0 1 1.013 1.738v5.68a17.318 17.318 0 0 1-.57 3.513 15.687 15.687 0 0 1-6.261 8.737 2.651 2.651 0 0 1-1.367.439 2.329 2.329 0 0 1-2.045-1.155 2.671 2.671 0 0 1-.281-1.784 2.483 2.483 0 0 1 1.013-1.569 10.773 10.773 0 0 0 4.646-8.831v-4.239a5.708 5.708 0 0 1 .048-1.013 2.441 2.441 0 0 1 1.18-1.653z" class="cls-1" data-name="Path 1270" transform="translate(-944.516 -93.192)"/><path id="Path_1271" d="M299.9 360.056a6.234 6.234 0 0 1 1.938.11 11.371 11.371 0 0 0 2.53-.06 3.437 3.437 0 0 1 1.59-.008 2.435 2.435 0 0 1-.163 4.716 18.742 18.742 0 0 1-2.5.26h-.9a20.34 20.34 0 0 1-2.5-.255 2.437 2.437 0 0 1 0-4.762z" class="cls-1" data-name="Path 1271" transform="translate(-277.302 -335.102)"/></svg>