<svg xmlns="http://www.w3.org/2000/svg" width="82.996" height="31.81"><defs><style>.cls-2{fill:#56596a}.cls-3{fill:none}</style></defs><g id="Group_5268" data-name="Group 5268" transform="translate(5447.229 -6530.571)"><g id="_1__2" data-name="*1#_2" transform="translate(-5447.229 6530.571)"><g id="_27bdbeff" data-name="#27bdbeff"><path id="Path_1283" d="M8.6 402.171a1.948 1.948 0 0 1 1.438-.142 1.91 1.91 0 0 1 1.253 1.348 4.292 4.292 0 0 1 .051 1.6c-.151 1.646-.4 3.28-.583 4.922 1.325-.589 2.608-1.267 3.913-1.9a10.27 10.27 0 0 1 1.837-.722 2.028 2.028 0 0 1 1.5.188 1.863 1.863 0 0 1 .922 1.2 1.783 1.783 0 0 1-.17 1.24 1.534 1.534 0 0 1-.715.772 29.309 29.309 0 0 1-6.437 1.675c.829.784 1.616 1.613 2.4 2.444.179.182.313.4.475.6.419.537.9 1.025 1.3 1.576a1.923 1.923 0 0 1 .41 1.555 1.836 1.836 0 0 1-.678 1.119 1.974 1.974 0 0 1-1.377.4 2.2 2.2 0 0 1-1.182-.63 10.111 10.111 0 0 1-1.7-2.251C10.612 416.1 10.05 415 9.5 413.89c-.794 1.415-1.566 2.844-2.391 4.241a6.866 6.866 0 0 1-1.047 1.379 1.838 1.838 0 0 1-1 .52 1.933 1.933 0 0 1-1.528-.406 1.9 1.9 0 0 1-.721-1.319 1.675 1.675 0 0 1 .232-1.015 34.831 34.831 0 0 1 4.373-4.938 45.186 45.186 0 0 1-2.92-.546 20.525 20.525 0 0 1-3.3-1.03 1.472 1.472 0 0 1-.641-.363A2.39 2.39 0 0 1 0 409.174v-.268a1.893 1.893 0 0 1 .287-.81 1.992 1.992 0 0 1 1.448-.872 3.3 3.3 0 0 1 1.421.272c.595.232 1.173.5 1.749.78 1.116.544 2.226 1.1 3.353 1.624a38.302 38.302 0 0 1-.519-3.648c-.07-.749-.152-1.5-.16-2.251a2.093 2.093 0 0 1 1.02-1.828z" data-name="Path 1283" transform="translate(64.027 -390.789)" style="fill:#27bdbe"/><g id="_f58220ff" data-name="#f58220ff"><path id="Path_1281" d="M522.828.27a1.715 1.715 0 0 1 1.217-.06 2.07 2.07 0 0 1 1.087.68 2.49 2.49 0 0 1 .541 1.567q.013 12.8-.015 25.593a9.02 9.02 0 0 1-.04 1.133 3.415 3.415 0 0 1-.623 1.644 2.652 2.652 0 0 1-1.248.907 4.26 4.26 0 0 1-1.1.2 3.715 3.715 0 0 1-1.021-.186 2.651 2.651 0 0 1-1.324-1.027 3.008 3.008 0 0 1-.464-1.271 14.639 14.639 0 0 1-.107-2.3q-.031-8.574-.043-17.15c-.009-.451.016-.9-.034-1.352-1.052.617-2.077 1.276-3.141 1.873a6.367 6.367 0 0 1-1.636.593 2.02 2.02 0 0 1-2.253-1.281 1.867 1.867 0 0 1 .567-1.967 3.117 3.117 0 0 1 .54-.342c.6-.336 1.222-.649 1.856-.929a13.236 13.236 0 0 0 2.757-1.66 17.367 17.367 0 0 0 3.386-3.612A3.083 3.083 0 0 1 522.828.27z" class="cls-2" data-name="Path 1281" transform="translate(-512.54 -.126)"/></g><g id="Path_1289" data-name="Path 1289" transform="translate(17.359 .135)"><path id="Path_1291" d="M9.261 0a9.261 9.261 0 0 1 9.261 9.261v12.884a9.261 9.261 0 1 1-18.522 0V9.261A9.261 9.261 0 0 1 9.261 0z" class="cls-3" data-name="Path 1291"/><path id="Path_1292" d="M9.261 4.7A4.568 4.568 0 0 0 4.7 9.261v12.884a4.563 4.563 0 1 0 9.127 0V9.261A4.568 4.568 0 0 0 9.261 4.7m0-4.7a9.261 9.261 0 0 1 9.261 9.261v12.884a9.261 9.261 0 1 1-18.522 0V9.261A9.261 9.261 0 0 1 9.261 0z" class="cls-2" data-name="Path 1292"/></g><g id="Path_1290" data-name="Path 1290" transform="translate(40.067 .135)"><path id="Path_1293" d="M9.261 0a9.261 9.261 0 0 1 9.261 9.261v12.884a9.261 9.261 0 1 1-18.522 0V9.261A9.261 9.261 0 0 1 9.261 0z" class="cls-3" data-name="Path 1293"/><path id="Path_1294" d="M9.261 4.7A4.568 4.568 0 0 0 4.7 9.261v12.884a4.563 4.563 0 1 0 9.127 0V9.261A4.568 4.568 0 0 0 9.261 4.7m0-4.7a9.261 9.261 0 0 1 9.261 9.261v12.884a9.261 9.261 0 1 1-18.522 0V9.261A9.261 9.261 0 0 1 9.261 0z" class="cls-2" data-name="Path 1294"/></g></g></g></g></svg>