<svg xmlns="http://www.w3.org/2000/svg" width="63.95" height="52.8"><path d="M-26.34.86A1.423 1.423 0 0 0-25.8-.3v-.05a4.654 4.654 0 0 0-.12-.8q-.03-.15-.1-.46l-.06-.26-.06-.27a5.93 5.93 0 0 0-2.1 1.06 1.433 1.433 0 0 0-.47 1.03v.07a1.234 1.234 0 0 0 .52.96 1.308 1.308 0 0 0 .8.23 1.635 1.635 0 0 0 1.05-.35zm3.42-3.58q.08.34.2.87l.1.41.09.39q.21.9.4 1.62a1.454 1.454 0 0 0 .79 1.05 3.024 3.024 0 0 0 .87.21 9.1 9.1 0 0 0 .96.04v3.28a11.493 11.493 0 0 1-1.55-.09 5.889 5.889 0 0 1-1.62-.44 4.519 4.519 0 0 1-1.6-1.2l-.12-.14a4.138 4.138 0 0 1-1.16.72 4.72 4.72 0 0 1-1.76.33l-.1-.01h-.11a4.751 4.751 0 0 1-2.07-.55A3.974 3.974 0 0 1-31.74.91a4.966 4.966 0 0 1-.11-1.03 4.579 4.579 0 0 1 .19-1.31 4.843 4.843 0 0 1 1.29-2.01 9.261 9.261 0 0 1 3.51-1.77l-.19-.88 3.2-.73q.57 2.5.93 4.1zM-11.33.07a5.6 5.6 0 0 1 .08.92 4.065 4.065 0 0 1-.78 2.44 4.69 4.69 0 0 1-4.07 1.72h-3.91V1.87h3.84a2.459 2.459 0 0 0 1.27-.24.79.79 0 0 0 .38-.73 1.531 1.531 0 0 0-.04-.33q-.1-.51-.2-1.04-.04-.2-.08-.43l-.04-.19-.03-.19q-.15-.82-.23-1.17l3.13-.95q.3 1.41.68 3.47zm-2.33 10.8-1.96-1.98 1.94-2 2 2zm-4.22.01-1.96-1.98 1.93-2 2 2zm13.63-5.73h-.9a4.863 4.863 0 0 1-1.99-.39 3.735 3.735 0 0 1-1.17-.79A3.735 3.735 0 0 1-9.1 2.8 4.863 4.863 0 0 1-9.49.81V-9.27h3.27V.81a1.184 1.184 0 0 0 .23.84 1.2 1.2 0 0 0 .84.22h.9zm7.61-2.87a2.28 2.28 0 0 0 .13-.78q0-.11-.01-.22a2.519 2.519 0 0 0-.45-1.33 1.167 1.167 0 0 0-.95-.57A1.4 1.4 0 0 0 .86.26 3.926 3.926 0 0 0 .55 1q-.05.14-.11.34l-.04.15-.04.13a4.746 4.746 0 0 0 1.48.83 3.8 3.8 0 0 0 1.18.26q.18 0 .34-.43zM2.08-3.9a3.932 3.932 0 0 1 3.54 1.94 5.9 5.9 0 0 1 .71 1.7 6.429 6.429 0 0 1 .2 1.54 4.92 4.92 0 0 1-1.22 3.64 3.133 3.133 0 0 1-1.08.72 3.214 3.214 0 0 1-1.01.23q-.1.01-.28.01a6.625 6.625 0 0 1-2.66-.62 9.768 9.768 0 0 1-1.03-.51l-.22-.12-.2-.11q-.23-.14-.33-.19a3.766 3.766 0 0 1-2.73.82h-.54V1.87h.41a1.622 1.622 0 0 0 1.33-.42 8.655 8.655 0 0 0 .56-1.5q.03-.09.06-.17a1.46 1.46 0 0 1 .08-.22 4.865 4.865 0 0 1 .23-.54 6.033 6.033 0 0 1 .8-1.29A4.176 4.176 0 0 1 2.08-3.9zm11.33 2.13V.96a.78.78 0 0 0 .44.69 1.321 1.321 0 0 0 .71.22h.46v3.28h-.46a4.389 4.389 0 0 1-1.23-.19 6.483 6.483 0 0 1-1.49 3.56 6.455 6.455 0 0 1-5.12 1.99h-.99V7.23h.99a3.477 3.477 0 0 0 2.62-.83 3.97 3.97 0 0 0 .79-2.78v-5.39zm9.43 3.43a1.153 1.153 0 0 0 .38-.99v-2.43h3.28V.67a1.327 1.327 0 0 0 .23.88 1.249 1.249 0 0 0 .99.32q1.14 0 1.14-.79a1.656 1.656 0 0 0-.05-.38q-.57-2.35-.74-3.15l3.18-.76q.29 1.2.75 3.15a3.962 3.962 0 0 1 .1.9 4.7 4.7 0 0 1-.07.79 4.519 4.519 0 0 1-.67 1.69 3.883 3.883 0 0 1-3.47 1.83 5.886 5.886 0 0 1-1.93-.31 4.558 4.558 0 0 1-1.11-.6 4.373 4.373 0 0 1-2.73.91 4.493 4.493 0 0 1-2.81-.91 3.718 3.718 0 0 1-2.87.91h-1.92V1.87h1.92a1.249 1.249 0 0 0 .99-.32 1.327 1.327 0 0 0 .23-.88v-2.43h3.28V.67a1.224 1.224 0 0 0 .34.99 1.12 1.12 0 0 0 .75.21 1.333 1.333 0 0 0 .81-.21zm-34 27.21-.83 3.17a7.47 7.47 0 0 0-1.41-.23 1.512 1.512 0 0 0-.2-.01 3.066 3.066 0 0 0-2.14.79 2.621 2.621 0 0 0-.88 2.01q2.14.6 3.21.93a5.076 5.076 0 0 1 1.12.46 2.179 2.179 0 0 1 .86.92 1.694 1.694 0 0 1 .14.44 1.568 1.568 0 0 1 .04.36q.01.18.01.36 0 5.46-5.92 5.46h-2.98a5.981 5.981 0 0 1-4.2-1.57 6.241 6.241 0 0 1-1.93-4.84 13.613 13.613 0 0 1 1.57-5.98l2.94 1.44a10.073 10.073 0 0 0-1.23 4.13 7.894 7.894 0 0 0 .07 1.14 3.541 3.541 0 0 0 .35 1.15 2.51 2.51 0 0 0 2.43 1.25h2.98a6.053 6.053 0 0 0 1.35-.13 1.512 1.512 0 0 0 .98-.56 2.068 2.068 0 0 0 .28-1q-.12-.04-4.82-1.28a5.594 5.594 0 0 1-.53-2.62 6 6 0 0 1 1.43-3.89 6.259 6.259 0 0 1 5.15-2.24 6.668 6.668 0 0 1 2.16.34zm8.29 7.76a7.152 7.152 0 0 1-1.57 4.9 6.455 6.455 0 0 1-5.12 1.99h-.99v-3.28h.99a3.477 3.477 0 0 0 2.62-.83 3.97 3.97 0 0 0 .79-2.78v-5.39h3.28zm4.96 1.52h-3.28V23.73h3.28zM9.36 27.1q.26.4.7 1.04 1.16 1.75 2.81 4.22.09.14.19.28.13.18.25.36.35.48.66.84.88 1.04 1.35 1.04h.7v3.27h-.95a4.146 4.146 0 0 1-2.79-1.19 3.87 3.87 0 0 1-.98.76 4.57 4.57 0 0 1-2.3.58 16.481 16.481 0 0 1-3.5-.47q-.66-.15-1.32-.33-.22-.06-.41-.12-.07-.02-.12-.03l-.04-.01-.02-.01.97-3.13q.34.1.8.23.59.15 1.15.27a12.472 12.472 0 0 0 2.49.33 1.017 1.017 0 0 0 .99-.45.577.577 0 0 0 .08-.29 1.039 1.039 0 0 0-.21-.57q-.88-1.3-1.63-2.42-.57-.85-1.07-1.59l-.78-1.17 2.74-1.79zm-3.04-3.65 2.08-2.1 2.12 2.12-2.11 2.1zm20.65 1.42-6.55 2.98q.86.85 2.41 2.49A9.928 9.928 0 0 1 24.7 33a4.171 4.171 0 0 1 .37 1.65v.08a3.065 3.065 0 0 1-.25 1.19 3.025 3.025 0 0 1-.63.94 3.805 3.805 0 0 1-1.34.86 7.642 7.642 0 0 1-2.73.43h-5.3v-3.28h5.3a5.462 5.462 0 0 0 1.85-.17 1.383 1.383 0 0 0-.1-.26 4.681 4.681 0 0 0-.27-.44 10.7 10.7 0 0 0-1.16-1.42q-1.74-1.85-3.02-3.09-.22-.21-.42-.39-.15-.15-.29-.27a1.218 1.218 0 0 0-.1-.09l-.07-.07-.03-.02-.01-.02-.02-.01.38-2.74 8.75-4zm-9.9-1.91 7.34-3.26.52 1.12-7.99 3.56z" data-name="Path 1288" transform="translate(31.85 9.27)" style="fill:#56596a"/></svg>