<svg xmlns="http://www.w3.org/2000/svg" width="70" height="77"><defs><clipPath id="a"><path fill="none" d="M0 0h70v77H0z"/></clipPath></defs><g clip-path="url(#a)" fill="#5439ac"><g data-name="Group 350"><path data-name="Path 78" d="M41.46 38.241q-.057-2.933-.294-5.857a71.9 71.9 0 0 0-1.378-9.611 29.272 29.272 0 0 0-4.829-10.793 1.66 1.66 0 0 0-2.58-.2q-2.89 2.934-5.775 5.872a1.656 1.656 0 0 0-.052 2.355 29.509 29.509 0 0 1 3.424 4.6 34.814 34.814 0 0 1 3.636 8.5 48.405 48.405 0 0 1 1.384 6.795 38.251 38.251 0 0 1 .323 6.2 40.671 40.671 0 0 1-.522 5.341 1.514 1.514 0 1 1-2.989-.48 36.93 36.93 0 0 0 .491-6.549 37.559 37.559 0 0 0-.668-6.368 34.585 34.585 0 0 0-1.569-5.764 1.813 1.813 0 0 0-.79-1.051 1.508 1.508 0 0 0-2.13 1.886 28.731 28.731 0 0 1 1.3 4.272 33.161 33.161 0 0 1 .639 3.966c.087.868.148 1.737.17 2.609a.779.779 0 0 1-1.079.838 7.957 7.957 0 0 1-2.22-.855 5.3 5.3 0 0 1-2.474-3.818c-.293-1.958-.567-3.919-.849-5.879-.136-.943-.273-1.885-.4-2.829a.333.333 0 0 0-.211-.286c-2.6-1.3-5.2-2.6-7.792-3.915a5.291 5.291 0 0 1-2.958-4.019 5.355 5.355 0 0 1 2.864-5.661c2.623-1.315 5.262-2.6 7.9-3.889a.366.366 0 0 0 .235-.313c.3-2.06.607-4.118.914-6.177.14-.943.25-1.891.428-2.827A5.371 5.371 0 0 1 28.061.082a5.227 5.227 0 0 1 4.716 1.555c2.059 2.084 4.088 4.2 6.125 6.3a.4.4 0 0 0 .408.134c2.9-.5 5.8-1 8.71-1.477a5.422 5.422 0 0 1 6.151 4.405 5.569 5.569 0 0 1-.621 3.652c-1.352 2.543-2.692 5.093-4.04 7.639a.277.277 0 0 0 0 .3c1.357 2.587 2.718 5.172 4.059 7.767a5.416 5.416 0 0 1-2.062 7.251 1.891 1.891 0 0 0-.957 1.735c0 .934 0 1.867-.016 2.8a77.318 77.318 0 0 1-.32 5.794 1.511 1.511 0 0 1-1.706 1.376 1.527 1.527 0 0 1-1.3-1.7c.109-1.174.177-2.35.233-3.527.09-1.893.109-3.787.073-5.681-.044-2.288-.08-4.578-.216-6.863-.03-.5-.076-1.005-.112-1.508a1.512 1.512 0 1 0-3.016.214c.143 1.725.209 3.454.253 5.183.053 2.071.1 4.141.067 6.213a1.512 1.512 0 0 1-3.024.059c-.011-1.029 0-2.058 0-3.087Z"/><path data-name="Path 83" d="M44.119 46.095c-.1 1.12-.182 2.341-.32 3.559a41.992 41.992 0 0 1-1.082 5.9 1.511 1.511 0 0 1-2.952-.057 1.513 1.513 0 0 1 .032-.708 36.213 36.213 0 0 0 1.02-5.573c.126-1.15.186-2.305.31-3.455a1.476 1.476 0 0 1 1.655-1.357 1.533 1.533 0 0 1 1.337 1.691Z"/></g><g data-name="Group 351"><path data-name="Path 79" d="M36.643 67.179v-4.76a1.464 1.464 0 0 1 1.059-1.464 1.44 1.44 0 0 1 1.838 1.36c.01.793 0 1.587 0 2.38q0 3.385.005 6.77a2.528 2.528 0 0 0 5.023.462 10.038 10.038 0 0 0 .035-1.434c-.005-1.238.034-2.475.047-3.712a1.467 1.467 0 0 1 1.34-1.517 1.433 1.433 0 0 1 1.543 1.25 8.349 8.349 0 0 0 2.623 4.822 9.73 9.73 0 0 0 5.662 2.7 8.93 8.93 0 0 0 6.255-1.607 14.836 14.836 0 0 0 4.242-4.66c.342-.559.645-1.141.949-1.722a1.442 1.442 0 0 1 2.684.317 1.366 1.366 0 0 1-.1.978 20.572 20.572 0 0 1-4.4 6.119 12.853 12.853 0 0 1-6.249 3.3 11.927 11.927 0 0 1-7.275-.817 12.929 12.929 0 0 1-4.409-3.161c-.035-.038-.059-.11-.121-.092s-.043.093-.057.143a5.419 5.419 0 0 1-10.011 1.305 5.126 5.126 0 0 1-.664-2.466"/><path data-name="Path 80" d="M7.276 63.81c.462.417.925.808 1.355 1.239a9.291 9.291 0 0 1 2.364 3.643 2.358 2.358 0 0 1 .112.394c.027.189.1.255.306.247.518-.018 1.036 0 1.554-.006a1.732 1.732 0 0 0 1.746-1.762 7.914 7.914 0 0 1 .019-1.044 1.439 1.439 0 0 1 2.863.074 6.32 6.32 0 0 1-.2 2.4 4.609 4.609 0 0 1-4 3.216c-.653.06-1.308.021-1.962.024-.173 0-.243.046-.282.223a5.583 5.583 0 0 1-2.267 3.509 5.678 5.678 0 0 1-2.664.958 10.213 10.213 0 0 1-1.164.04H1.517a1.453 1.453 0 1 1-.014-2.9c1.3-.007 2.591 0 3.886 0a3.594 3.594 0 0 0 1.245-.19 2.629 2.629 0 0 0 1.7-2.071 4.367 4.367 0 0 0-.913-3.732 11.5 11.5 0 0 0-3.3-2.838 17.774 17.774 0 0 0-3.093-1.483 1.45 1.45 0 0 1-.681-2.316 1.354 1.354 0 0 1 1.028-.516H16.12a1.426 1.426 0 0 1 1.443 1.175 1.446 1.446 0 0 1-1.271 1.708 5.663 5.663 0 0 1-.47.019H7.281Z"/><path data-name="Path 81" d="M25.787 60.905h1.81a1.43 1.43 0 0 1 1.488 1.375 1.406 1.406 0 0 1-1.388 1.512c-1.083.031-2.168.015-3.251.019a1.68 1.68 0 0 0-1.51.854 1.71 1.71 0 0 0-.24.9c0 .67-.008 1.341 0 2.011a1.73 1.73 0 1 0 3.459 0c.006-.335 0-.67 0-1.006a1.443 1.443 0 1 1 2.885.013 8.732 8.732 0 0 1-.135 2.164 4.635 4.635 0 0 1-4.067 3.457 4.555 4.555 0 0 1-4.987-4.073 11.187 11.187 0 0 1 .089-3.678 4.556 4.556 0 0 1 3.874-3.514c.697-.086 1.401-.006 1.973-.034Z"/><path data-name="Path 82" d="M34.464 64.977c-.014.772.036 1.75-.04 2.726a10.123 10.123 0 0 1-3.044 6.9 8.539 8.539 0 0 1-4.775 2.28 4.519 4.519 0 0 1-1.363.056 1.43 1.43 0 0 1-1.207-1.539 1.448 1.448 0 0 1 1.469-1.343 5.625 5.625 0 0 0 3.643-1.35 6.624 6.624 0 0 0 2.127-3.563 9.7 9.7 0 0 0 .289-2.414v-4.348a1.45 1.45 0 1 1 2.9-.047c.01.81.001 1.62.001 2.642Z"/><path data-name="Path 84" d="M16.937 76.958h-3.169a1.44 1.44 0 0 1-1.428-1.292 1.454 1.454 0 0 1 1.06-1.556 1.647 1.647 0 0 1 .444-.059h6.236a1.451 1.451 0 0 1 1.382 2.034 1.359 1.359 0 0 1-1.3.872c-1.072.012-2.148.001-3.225.001Z"/><path data-name="Path 85" d="M46.003 63.798h-2.9a1.447 1.447 0 0 1-.32-2.859 1.157 1.157 0 0 1 .263-.03c1.99 0 3.979-.006 5.969 0a1.409 1.409 0 0 1 1.374 1.2 1.432 1.432 0 0 1-1.4 1.687c-.613.009-1.226 0-1.84 0Z"/></g></g></svg>