<svg xmlns="http://www.w3.org/2000/svg" width="75" height="55"><defs><style>.cls-1{fill:#572cc4}</style></defs><g id="setare_sim" data-name="setare sim" transform="translate(0 -.109)"><path id="Path_1272" d="M2.682 2.732a6.888 6.888 0 0 1 4.053-1.47q2.538-.006 5.075 0a2.16 2.16 0 0 1 1.81 1.021A2.209 2.209 0 0 1 13.9 3.9a2.185 2.185 0 0 1-1.525 1.633 4.876 4.876 0 0 1-1.284.082c-1.424.006-2.848-.01-4.272.008A2.592 2.592 0 0 0 4.4 8.052c-.018 1.084-.01 2.17 0 3.254a2.563 2.563 0 0 0 4.85 1.084 5.97 5.97 0 0 0 .273-2.6 2.179 2.179 0 0 1 .689-1.67 2.208 2.208 0 0 1 2.6-.286 2.17 2.17 0 0 1 1.067 1.879 14.358 14.358 0 0 1-.158 3.032 6.93 6.93 0 0 1-13.566-.169c-.071-.362-.088-.732-.155-1.094V7.954c.074-.407.089-.823.181-1.226a6.938 6.938 0 0 1 2.501-3.996z" class="cls-1" data-name="Path 1272" transform="translate(0 -1.059)"/><path id="Path_1273" d="M93.331 1.238a2.2 2.2 0 0 1 1.75.473 2.156 2.156 0 0 1 .783 1.7v6.417a17.976 17.976 0 0 1-1.5 7.482 13.382 13.382 0 0 1-4.876 5.743 12.961 12.961 0 0 1-7.131 2.125 2.169 2.169 0 0 1-1.729-.937 2.2 2.2 0 0 1-.138-2.261 2.168 2.168 0 0 1 1.954-1.158 8.528 8.528 0 0 0 5.162-1.786 9.7 9.7 0 0 0 3.282-4.893 14.333 14.333 0 0 0 .61-3.918c0-2.3-.006-4.6 0-6.9a2.193 2.193 0 0 1 1.833-2.087z" class="cls-1" data-name="Path 1273" transform="translate(-73.887 -1.015)"/><path id="Path_1274" d="M319.347.406a2.2 2.2 0 0 1 2.508.206 2.133 2.133 0 0 1 .775 1.63c0 4.464-.007 8.927.007 13.391a5.484 5.484 0 0 0 .11 1.283 3.788 3.788 0 0 0 2.068 2.532 3.681 3.681 0 0 0 3.236-.03 3.782 3.782 0 0 0 2.052-2.7 5.509 5.509 0 0 0 .052-1.084c.03-2.218.006-4.436.015-6.654a2.32 2.32 0 0 1 1.973-2.258A2.178 2.178 0 0 1 334.32 7.8a4.959 4.959 0 0 1 .391 1.5 12.944 12.944 0 0 0 4.23 6.871 14.907 14.907 0 0 0 8.459 3.649 13.311 13.311 0 0 0 7.246-1.467A19.161 19.161 0 0 0 361 12.821a30.183 30.183 0 0 0 2.694-4.277 9.78 9.78 0 0 1 .533-.976 2.2 2.2 0 0 1 1.723-.867 2.172 2.172 0 0 1 1.939 1.132A2.223 2.223 0 0 1 367.9 9.9a32.354 32.354 0 0 1-5.477 7.992 20.972 20.972 0 0 1-7.306 5.051 17.834 17.834 0 0 1-9.7 1.009 19.41 19.41 0 0 1-10.1-5.192c-.337-.32-.635-.678-.974-.994a8.214 8.214 0 0 1-4.8 5.759 8.108 8.108 0 0 1-11.259-7.34c-.044-4.624-.01-9.247-.021-13.871a2.2 2.2 0 0 1 1.084-1.908z" class="cls-1" data-name="Path 1274" transform="translate(-293.149)"/><path id="Path_1275" d="M414.5 1.259c3-.041 6 0 9.006-.017a2.169 2.169 0 0 1 2.014 1.211 2.2 2.2 0 0 1-.536 2.627 2.16 2.16 0 0 1-1.4.517h-8.794a2.159 2.159 0 0 1-1.846-1.029 2.2 2.2 0 0 1 .149-2.513 2.163 2.163 0 0 1 1.407-.796z" class="cls-1" data-name="Path 1275" transform="translate(-379.976 -1.041)"/><path id="Path_1276" d="M37.82 373.89a2.17 2.17 0 0 1 3.6.992c.086.352.12.715.2 1.068a12.422 12.422 0 0 0 2.825 5.418 15.089 15.089 0 0 0 7.428 4.62 13.277 13.277 0 0 0 8.1-.366 17.2 17.2 0 0 0 6.778-4.868 29.018 29.018 0 0 0 4.147-6.306 2.175 2.175 0 0 1 3.9 1.926 29.47 29.47 0 0 1-8.053 10.395 19.319 19.319 0 0 1-6.052 3.216 17.866 17.866 0 0 1-10.63.013 19.561 19.561 0 0 1-7.687-4.5c-.4-.363-.742-.779-1.133-1.147a8.219 8.219 0 0 1-4.154 5.45 8.049 8.049 0 0 1-9.192-1.135 3.2 3.2 0 0 0-.338-.267 7.011 7.011 0 0 1-3.743 1.972 6.919 6.919 0 0 1-4.988-1.017 6.992 6.992 0 0 1-3.153-5.827c-.529.514-1.016 1.072-1.57 1.563a21.716 21.716 0 0 1-10.855 5.384 3.242 3.242 0 0 1-1.839 0A2.236 2.236 0 0 1 0 388.673v-.473a2.222 2.222 0 0 1 1.781-1.906 17.2 17.2 0 0 0 7.475-2.894 17.411 17.411 0 0 0 6.543-8.513 2.143 2.143 0 0 1 1.922-1.323h4.988a6.918 6.918 0 0 1 6.791 6.349c.055.582.014 1.167.036 1.751a7.647 7.647 0 0 0 .188 2.073 3.743 3.743 0 0 0 6.437 1.332 3.7 3.7 0 0 0 .894-2.217c.022-2.5.032-5 .092-7.5a2.178 2.178 0 0 1 .672-1.462m-17.8 4.033c-.006 1.51-.017 3.021.017 4.53a5.944 5.944 0 0 0 .154 1.956 2.564 2.564 0 0 0 4.975-.845c.01-1-.006-2.009 0-3.013a2.586 2.586 0 0 0-1.839-2.525 5.109 5.109 0 0 0-1.49-.109c-.601.004-1.206-.012-1.811.006z" class="cls-1" data-name="Path 1276" transform="translate(0 -343.705)"/><path id="Path_1277" d="M6.909 373.825a1.128 1.128 0 0 1 1.2-.053 8.225 8.225 0 0 1 2.729 2.582 8.355 8.355 0 0 1 2.154-2.229 2.016 2.016 0 0 1 1.19-.5 1.1 1.1 0 0 1 1.028.976 1.076 1.076 0 0 1-.535 1.05 5.77 5.77 0 0 0-2.753 3.688 1.146 1.146 0 0 1-.924.869 1.125 1.125 0 0 1-1.25-.862 5.817 5.817 0 0 0-2.386-3.468 2.081 2.081 0 0 1-.753-.594 1.1 1.1 0 0 1 .3-1.459z" class="cls-1" data-name="Path 1277" transform="translate(-5.943 -343.978)"/><path id="Path_1278" d="M339.986 640.286c1.281-.051 2.568-.007 3.851-.021h5.235a2.169 2.169 0 0 1 1.777.886 2.2 2.2 0 0 1 .139 2.363 2.254 2.254 0 0 1-2 1.122h-8.556a2.284 2.284 0 0 1-1.885-.926 2.211 2.211 0 0 1-.261-2.054 2.177 2.177 0 0 1 1.7-1.37z" class="cls-1" data-name="Path 1278" transform="translate(-311.393 -589.527)"/></g></svg>